<svg version="1.1" id="Layer_1" xmlns="http://www.w3.org/2000/svg" xmlns:xlink="http://www.w3.org/1999/xlink" x="0px" y="0px"
	 width="100%" viewBox="0 0 210 159" enable-background="new 0 0 210 159" xml:space="preserve">
<path fill="#FFFFFF" opacity="1.000000" stroke="none" 
	d="
M1.000000,12.000000 
	C1.000000,8.337843 1.000000,4.675687 1.000000,1.010148 
	C70.909386,1.006765 140.818771,1.006765 211.000000,1.006765 
	C211.000000,45.687195 211.000000,90.374939 210.635529,135.492477 
	C206.793198,134.279419 203.432007,131.610657 199.814072,131.199142 
	C191.274399,130.227844 182.612473,130.331238 173.702087,129.979462 
	C172.936127,129.639267 172.468063,129.319626 172.007599,128.601624 
	C171.779480,125.787689 175.303986,122.842194 170.666672,121.000000 
	C169.888901,120.999893 169.444443,120.999794 168.931396,120.636795 
	C166.575180,119.515930 164.287598,118.757965 161.649506,117.997635 
	C160.199341,117.663506 159.099670,117.331749 157.964767,116.643951 
	C156.873459,114.673271 156.149704,112.618095 154.700378,111.524719 
	C149.918304,107.917076 145.226944,103.998161 139.000000,102.750000 
	C139.000000,102.500000 139.000000,102.000000 138.995270,101.627060 
	C137.404587,97.396019 136.332001,93.038139 131.212204,92.328362 
	C129.165634,92.044632 127.072136,92.099350 125.000000,91.560501 
	C124.992027,89.454979 125.246140,87.729362 124.885506,86.143539 
	C124.638092,85.055565 123.673172,83.470901 122.793304,83.296356 
	C117.984268,82.342369 113.107132,81.720856 108.244125,81.052567 
	C102.258080,80.229942 99.445976,82.675301 98.999649,89.249771 
	C98.999298,89.499573 98.998779,89.999184 98.654510,90.052429 
	C97.872780,91.069534 97.435326,92.033394 96.598267,92.998238 
	C95.132439,92.999481 94.066216,92.999741 92.706993,92.703346 
	C85.958496,91.603600 79.502998,90.800507 73.032089,89.623192 
	C73.027214,88.500153 73.037766,87.751350 73.388245,86.996002 
	C74.324699,86.629570 74.921219,86.269661 75.517738,85.909760 
	C74.700836,85.605400 73.883942,85.301033 73.048843,84.530373 
	C73.029854,79.042961 73.029076,74.021858 73.374542,68.944107 
	C74.537193,68.107307 75.223938,66.934692 76.192375,66.614777 
	C80.439011,65.211937 80.844872,61.613792 79.595482,58.669918 
	C78.941826,57.129738 75.326187,56.846630 73.035751,55.567928 
	C73.026390,53.427658 73.029549,51.715248 73.372566,49.947762 
	C74.666679,49.010410 75.528038,47.991058 76.591698,47.270233 
	C80.624931,44.536972 79.296333,42.411129 75.990990,40.091385 
	C73.861732,43.875610 72.086082,44.009396 69.999870,40.281116 
	C69.220062,38.887524 67.503418,37.817162 65.980347,37.085934 
	C63.478039,35.884579 60.785259,35.079948 57.236641,33.759769 
	C57.070850,33.887840 55.857082,34.825466 55.259636,35.286987 
	C52.808922,34.000038 50.904461,32.999943 48.811012,31.732109 
	C47.414707,30.976219 46.207386,30.488071 44.958679,29.679146 
	C44.278240,28.905529 43.639198,28.452688 42.946098,27.654602 
	C40.261414,25.206211 37.630783,23.103067 35.000076,20.999962 
	C35.000000,21.000000 35.000019,20.999878 34.892109,20.780529 
	C34.584743,20.287567 34.323341,20.100508 33.750000,19.999968 
	C33.500000,19.999935 33.000000,19.999924 32.807766,19.755453 
	C30.743595,20.007221 28.871658,20.503462 26.666454,20.999708 
	C25.888819,20.999704 25.444454,20.999693 24.811234,20.746181 
	C23.730045,20.694332 22.837713,20.895985 21.630306,21.061911 
	C20.541449,20.699827 19.767668,20.373470 18.996035,19.664513 
	C18.665482,17.521191 18.332779,15.760472 17.962011,13.643599 
	C16.731560,10.112213 14.501605,9.082400 11.801592,11.172041 
	C8.246693,13.923306 4.775260,14.007907 1.000000,12.000000 
z"/>
<path fill="#FDFEFD" opacity="1.000000" stroke="none" 
	d="
M174.000000,130.000000 
	C182.612473,130.331238 191.274399,130.227844 199.814072,131.199142 
	C203.432007,131.610657 206.793198,134.279419 210.635529,135.961136 
	C211.000000,143.983841 211.000000,151.967682 211.000000,160.000000 
	C146.979111,160.000000 82.958214,160.000000 18.468666,159.661133 
	C18.000063,158.870407 18.000107,158.418579 18.340698,157.960526 
	C19.465054,157.364182 20.248859,156.774063 21.221664,156.070480 
	C21.410664,155.957031 21.849449,155.914200 22.264225,155.886078 
	C23.113760,154.045364 23.923584,152.233582 23.927673,150.420013 
	C24.003195,116.929634 23.968193,83.439018 24.003222,49.948509 
	C24.006907,46.423828 24.303455,42.899448 24.478771,39.053837 
	C26.925087,39.837276 28.963478,40.490074 30.955809,41.491821 
	C29.608847,44.447121 27.407074,46.975079 27.172165,49.674213 
	C26.398001,58.569370 26.010921,67.528481 26.065823,76.459396 
	C26.190231,96.697220 26.715294,116.932312 26.951807,137.169983 
	C26.989941,140.432800 27.854536,142.257767 31.461252,142.070099 
	C32.302795,142.026337 33.185085,142.765594 33.905685,143.444153 
	C33.501781,144.809631 33.240822,145.875504 32.872681,147.072845 
	C32.765499,147.204300 32.440899,147.302841 32.072544,147.236023 
	C30.824448,148.138367 29.944706,149.107529 29.032990,150.039764 
	C29.001015,150.002869 29.077549,150.063385 28.819031,150.103119 
	C28.374310,150.421524 28.188108,150.700180 27.857361,151.252563 
	C28.133900,152.139725 28.554987,152.753174 29.072628,153.517792 
	C29.457436,153.563248 29.745693,153.457535 30.419151,153.298248 
	C31.837780,153.295181 32.871208,153.345673 34.009003,153.758011 
	C36.774643,153.880859 39.435913,153.641861 42.393528,153.286163 
	C43.304779,153.003632 43.919685,152.837799 44.906792,152.750214 
	C46.160011,151.840500 47.041027,150.852539 48.097424,149.611130 
	C49.426182,148.513580 50.579559,147.669479 52.077579,146.860611 
	C52.949322,146.266281 53.476418,145.636703 54.249489,144.700836 
	C55.030106,142.746872 55.944492,141.118332 56.028633,139.447968 
	C56.287491,134.309113 56.228729,129.154282 56.534443,123.701233 
	C56.623600,120.596535 56.471706,117.796257 56.258827,114.601532 
	C56.245529,113.146996 56.293217,112.086891 56.643185,110.811333 
	C60.096512,110.059784 63.248692,109.530235 66.398338,108.986061 
	C71.086533,108.176056 72.536469,110.261543 72.150505,114.776833 
	C71.812180,118.734741 71.966728,122.758972 72.219795,126.733788 
	C72.362404,128.973663 73.212624,129.218765 75.145020,127.847565 
	C75.754807,127.347610 76.204376,127.063271 77.004974,126.824783 
	C77.898621,126.238594 78.441223,125.606544 79.096832,124.752548 
	C79.430084,124.262314 79.710434,124.094215 80.414810,124.038147 
	C81.828239,122.991096 82.877731,121.932220 84.055649,120.668076 
	C84.411797,120.213997 84.692474,120.064850 85.391541,120.034210 
	C86.815308,118.997177 87.873657,117.941284 89.122833,116.618492 
	C91.740532,114.476585 94.167397,112.601593 96.953018,110.783531 
	C97.854614,110.191483 98.397446,109.542503 99.061012,108.684814 
	C99.407097,108.230598 99.682724,108.073082 100.373123,108.020386 
	C102.141800,106.666183 103.545982,105.295135 105.084808,103.716217 
	C105.449600,103.252373 105.734222,103.094772 106.491714,103.047516 
	C109.113525,103.247780 111.316933,103.436066 113.808777,103.767372 
	C115.719513,105.309364 117.341812,106.708336 119.063309,108.338737 
	C119.460037,108.700745 119.757561,108.831322 120.027916,108.980438 
	C120.000748,108.998970 120.039803,108.946014 120.049789,109.301834 
	C121.335335,110.456726 122.610909,111.255798 124.127548,112.139854 
	C124.579155,112.483849 124.789711,112.742867 125.022125,113.356094 
	C126.694984,114.807205 128.345963,115.904099 130.229919,117.074776 
	C130.762024,117.320625 130.957458,117.572975 131.050751,118.251534 
	C132.702286,120.384048 134.352234,122.170647 136.001465,124.387772 
	C136.084717,126.410744 136.168671,128.003189 136.223389,129.040756 
	C138.450348,130.043732 140.241119,130.486313 141.572250,131.520493 
	C145.054535,134.225967 148.410385,137.107910 151.678436,140.071899 
	C155.675415,143.696960 161.580536,145.019897 163.448486,151.317886 
	C164.693237,155.514679 171.437622,156.056396 174.440399,152.752625 
	C174.653320,152.740402 175.006851,152.979034 175.151703,153.298645 
	C176.983093,155.235291 178.644562,156.359299 180.553482,153.311722 
	C185.994934,153.288605 190.980148,153.328064 196.061554,153.520523 
	C196.449371,153.574860 196.741013,153.476181 197.365448,153.314590 
	C198.149551,153.242188 198.600861,153.232712 199.211548,153.440338 
	C199.895477,153.719208 200.420059,153.780960 201.146027,154.105026 
	C201.855957,154.169205 202.665802,154.108734 202.828461,153.752609 
	C205.930923,146.960602 203.672989,140.664139 200.842789,133.182938 
	C198.840042,136.024536 197.387100,138.086060 195.494354,140.127838 
	C192.399750,140.115585 189.744995,140.123077 186.897217,139.851593 
	C186.069901,139.412354 185.435623,139.252075 184.508987,139.105621 
	C183.827469,139.139679 183.438309,139.159927 182.902832,138.813110 
	C182.288589,137.070465 181.820663,135.694855 181.401703,134.463226 
	C178.581406,133.224106 173.756973,135.733734 174.000000,130.000000 
M106.628761,149.956772 
	C106.476250,149.283508 106.323738,148.610260 106.081284,147.080475 
	C105.999550,145.076263 105.917816,143.072037 106.022148,140.426804 
	C105.878975,140.006516 105.735794,139.586212 106.214615,138.830917 
	C106.100960,137.872162 105.987305,136.913391 105.996910,135.070618 
	C106.073219,132.398972 106.149529,129.727325 106.567436,126.839668 
	C106.408867,126.550949 106.250298,126.262222 105.799553,125.552467 
	C105.544151,125.328262 105.288757,125.104057 104.887924,124.507896 
	C104.573700,124.598442 104.259476,124.688988 103.087097,124.859734 
	C101.077469,124.828720 99.067841,124.797707 96.836960,124.432053 
	C96.548561,124.589294 96.260162,124.746544 95.369514,125.492569 
	C95.283623,128.930374 95.197723,132.368195 95.014450,136.653336 
	C95.006416,137.506531 94.998390,138.359711 94.399719,139.752533 
	C94.546387,143.540436 91.926605,147.734833 96.151901,151.311874 
	C96.445854,151.229980 96.739807,151.148071 97.758881,151.003616 
	C98.209595,150.846237 98.660316,150.688858 99.895416,150.697800 
	C101.222771,150.629227 102.550133,150.560654 104.431503,150.807190 
	C104.981712,150.554306 105.531914,150.301407 106.628761,149.956772 
M121.197227,151.527023 
	C121.466591,151.364975 121.735962,151.202911 122.525589,150.405029 
	C122.630180,146.999695 122.734764,143.594376 122.891815,139.309814 
	C123.195625,137.892090 123.910057,136.417221 123.722343,135.067886 
	C123.254082,131.701767 126.202591,127.708488 122.000000,125.000107 
	C122.000000,125.000107 121.999718,124.996323 121.851051,124.228607 
	C114.640175,121.066330 109.915504,123.677216 110.082275,130.902878 
	C110.153755,133.999634 110.772194,137.083771 111.045341,140.861359 
	C111.183823,141.293304 111.322311,141.725235 111.321068,142.959885 
	C111.372726,144.584915 111.424393,146.209961 111.135017,148.554642 
	C112.137886,149.246780 113.140747,149.938934 114.996407,150.762939 
	C117.009781,150.711334 119.023148,150.659729 120.865448,150.911987 
	C120.865448,150.911987 120.937225,151.253250 121.197227,151.527023 
z"/>
<path fill="#FEFEFD" opacity="1.000000" stroke="none" 
	d="
M18.000153,157.966736 
	C18.000107,158.418579 18.000063,158.870407 18.000008,159.661133 
	C12.354071,160.000000 6.708141,160.000000 1.000000,160.000000 
	C1.000000,125.979126 1.000000,91.958221 1.375573,57.424644 
	C6.777287,54.902248 4.936410,50.508015 4.873116,47.030163 
	C4.706667,37.884178 4.109935,28.746027 3.667553,19.238379 
	C3.222602,19.198618 2.111301,19.099310 1.000000,19.000000 
	C1.000000,16.958334 1.000000,14.916667 1.000000,12.437500 
	C4.775260,14.007907 8.246693,13.923306 11.801592,11.172041 
	C14.501605,9.082400 16.731560,10.112213 17.593754,13.648421 
	C15.842436,15.014087 14.421309,16.018772 12.626423,17.070320 
	C11.183549,19.106833 9.246740,21.072023 9.189855,23.090206 
	C8.881463,34.031269 9.037708,44.985435 8.825426,56.229618 
	C7.411333,58.803505 5.441319,60.993492 5.162165,63.381161 
	C4.612381,68.083603 4.580997,72.949707 5.183536,77.639107 
	C5.472432,79.887520 7.695149,81.887459 9.045349,84.468567 
	C9.046703,106.347420 9.045639,127.757629 9.042421,149.167831 
	C9.041101,157.950607 9.044576,157.956085 18.000153,157.966736 
z"/>
<path fill="#FFFFFF" opacity="1.000000" stroke="none" 
	d="
M1.000000,19.468658 
	C2.111301,19.099310 3.222602,19.198618 3.667553,19.238379 
	C4.109935,28.746027 4.706667,37.884178 4.873116,47.030163 
	C4.936410,50.508015 6.777287,54.902248 1.375573,56.955986 
	C1.000000,44.645771 1.000000,32.291542 1.000000,19.468658 
z"/>
<path fill="#FDFEFC" opacity="1.000000" stroke="none" 
	d="
M173.702087,129.979462 
	C173.756973,135.733734 178.581406,133.224106 181.401703,134.463226 
	C181.820663,135.694855 182.288589,137.070465 182.625488,139.071075 
	C180.690948,139.781387 178.887405,139.866684 176.848267,139.867950 
	C176.403549,139.531799 176.194427,139.279694 175.972443,138.672058 
	C174.312759,137.209076 172.665955,136.101624 171.009430,134.998276 
	C170.999710,135.002365 171.003891,134.982010 170.975281,134.623077 
	C169.837830,133.592316 168.728989,132.920486 167.345322,132.148392 
	C166.362854,131.396820 165.655212,130.745499 164.918167,129.733551 
	C164.119308,129.007889 163.349838,128.642868 162.412018,128.213333 
	C162.243637,128.148804 162.028641,127.859291 161.944565,127.625282 
	C161.636459,127.102684 161.342621,126.976151 160.751923,126.931541 
	C160.234619,126.679405 160.037979,126.432785 159.914566,125.751419 
	C159.128372,125.015617 158.362564,124.639923 157.299789,124.124878 
	C154.658157,122.009285 152.313477,120.033058 149.985413,117.681412 
	C149.961960,116.557404 149.921860,115.808823 150.209320,114.919418 
	C153.024597,115.519073 155.512299,116.259537 158.000000,117.000000 
	C159.099670,117.331749 160.199341,117.663506 161.649506,118.423996 
	C162.415054,120.497375 162.830124,122.142006 163.245178,123.786644 
	C164.880524,123.027710 166.518066,122.273476 168.149170,121.505531 
	C168.446304,121.365639 168.717072,121.169746 169.000000,120.999695 
	C169.444443,120.999794 169.888901,120.999893 170.692123,121.326332 
	C172.767380,123.920921 167.521500,127.088539 172.000000,129.000000 
	C172.468063,129.319626 172.936127,129.639267 173.702087,129.979462 
z"/>
<path fill="#FDFEFC" opacity="1.000000" stroke="none" 
	d="
M43.000153,27.999847 
	C43.639198,28.452688 44.278240,28.905529 44.994766,30.023140 
	C46.381496,31.125221 47.690750,31.562534 49.000000,31.999847 
	C50.904461,32.999943 52.808922,34.000038 55.259636,35.286987 
	C55.857082,34.825466 57.070850,33.887840 57.236641,33.759769 
	C60.785259,35.079948 63.478039,35.884579 65.980347,37.085934 
	C67.503418,37.817162 69.220062,38.887524 69.999870,40.281116 
	C72.086082,44.009396 73.861732,43.875610 75.990990,40.091385 
	C79.296333,42.411129 80.624931,44.536972 76.591698,47.270233 
	C75.528038,47.991058 74.666679,49.010410 73.324554,49.637886 
	C72.348839,48.909763 71.761009,48.436440 70.946304,47.850555 
	C70.475357,47.507568 70.231277,47.277142 69.972687,46.742085 
	C69.293259,46.340641 68.628349,46.243832 67.637527,46.105667 
	C66.557907,45.630478 65.804176,45.196640 64.998901,44.419022 
	C58.755363,39.409119 52.080688,35.786045 44.068607,34.505341 
	C43.501431,34.392597 43.228176,34.220875 42.937145,33.597385 
	C42.012959,33.000786 41.156612,32.776299 40.057251,32.536060 
	C39.489864,32.437790 39.213680,32.274021 38.977913,31.711609 
	C38.637783,30.624483 38.305428,29.854759 38.213177,28.791643 
	C39.968906,28.332117 41.484528,28.165981 43.000153,27.999847 
z"/>
<path fill="#FDFEFC" opacity="1.000000" stroke="none" 
	d="
M139.000000,102.000000 
	C139.000000,102.000000 139.000000,102.500000 139.035233,103.098663 
	C140.360580,105.933441 141.330460,108.448860 144.923477,107.338997 
	C145.570129,107.139236 147.212128,108.781281 147.733002,109.885155 
	C148.475281,111.458191 148.606140,113.319733 148.585632,115.061737 
	C147.628616,115.137367 147.084167,115.209305 146.376282,115.232986 
	C146.212845,115.184746 146.012421,114.909119 145.918930,114.676147 
	C145.530518,114.309410 145.235611,114.175644 144.969772,114.021637 
	C144.998856,114.001411 144.955978,114.057869 144.949081,113.704346 
	C142.530563,111.624062 140.118958,109.897301 137.430481,108.071396 
	C136.428268,107.327560 135.702942,106.682846 134.959381,105.673187 
	C133.831955,104.613396 132.722763,103.918549 131.341873,103.123680 
	C130.358795,102.388878 129.647385,101.754097 128.930084,100.757195 
	C127.628777,99.591660 126.333382,98.788254 124.803268,97.904617 
	C124.270279,97.645836 124.069138,97.390709 123.953102,96.699356 
	C122.270798,95.248352 120.600517,94.156990 118.965439,93.034172 
	C119.000641,93.002716 118.940102,93.075554 118.916687,92.718353 
	C118.137672,91.980240 117.382088,91.599335 116.328392,91.094101 
	C114.295319,89.451736 112.560349,87.933701 110.906540,86.033318 
	C112.783363,85.504143 114.624405,85.041901 116.362976,85.291985 
	C118.438324,85.590508 120.425934,86.498993 121.948975,86.983406 
	C123.030464,88.761620 124.015228,90.380814 125.054909,92.349373 
	C131.110275,93.561378 134.331787,98.449402 138.518875,101.941124 
	C138.623123,102.028061 138.837158,101.983330 139.000000,102.000000 
z"/>
<path fill="#FDFEFD" opacity="1.000000" stroke="none" 
	d="
M125.000000,91.560501 
	C124.015228,90.380814 123.030464,88.761620 121.948975,86.983406 
	C120.425934,86.498993 118.438324,85.590508 116.362976,85.291985 
	C114.624405,85.041901 112.783363,85.504143 110.577606,86.006905 
	C109.514824,86.313011 108.862129,86.263184 108.144753,85.825981 
	C107.151955,81.700966 105.258163,82.652946 103.302681,84.517410 
	C101.805161,85.945221 100.429733,87.501076 99.000000,88.999969 
	C99.445976,82.675301 102.258080,80.229942 108.244125,81.052567 
	C113.107132,81.720856 117.984268,82.342369 122.793304,83.296356 
	C123.673172,83.470901 124.638092,85.055565 124.885506,86.143539 
	C125.246140,87.729362 124.992027,89.454979 125.000000,91.560501 
z"/>
<path fill="#DAFADA" opacity="1.000000" stroke="none" 
	d="
M71.173172,47.963120 
	C71.761009,48.436440 72.348839,48.909763 72.984695,49.692963 
	C73.029549,51.715248 73.026390,53.427658 73.016693,56.031311 
	C73.016205,60.948620 73.022247,64.974686 73.028290,69.000748 
	C73.029076,74.021858 73.029854,79.042961 73.027824,84.864395 
	C73.032776,86.110657 73.040543,86.556602 73.048309,87.002541 
	C73.037766,87.751350 73.027214,88.500153 73.016754,89.956863 
	C73.016052,91.110023 73.015266,91.555275 72.870026,92.272247 
	C71.807549,92.665840 70.889519,92.787720 70.224030,92.567978 
	C70.745209,90.959511 71.244980,89.693039 71.246933,88.425789 
	C71.267761,74.938301 71.209618,61.450695 71.173172,47.963120 
z"/>
<path fill="#FDFEFC" opacity="1.000000" stroke="none" 
	d="
M93.000000,93.000000 
	C94.066216,92.999741 95.132439,92.999481 96.616577,93.023743 
	C97.034500,93.048256 97.070908,93.099319 96.930359,93.389236 
	C96.546661,94.488731 96.303520,95.298325 95.871780,96.379539 
	C92.811226,98.862785 89.939278,101.074409 86.919693,102.988174 
	C86.168518,102.466454 85.564987,102.242592 84.873642,101.650757 
	C84.739952,100.026665 84.694077,98.770531 84.759239,97.157547 
	C84.904442,96.554344 84.938606,96.307991 85.054749,95.679184 
	C87.757820,94.531151 90.378906,93.765579 93.000000,93.000000 
z"/>
<path fill="#FDFEFC" opacity="1.000000" stroke="none" 
	d="
M73.374542,68.944107 
	C73.022247,64.974686 73.016205,60.948620 73.029221,56.459175 
	C75.326187,56.846630 78.941826,57.129738 79.595482,58.669918 
	C80.844872,61.613792 80.439011,65.211937 76.192375,66.614777 
	C75.223938,66.934692 74.537193,68.107307 73.374542,68.944107 
z"/>
<path fill="#FDFEFD" opacity="1.000000" stroke="none" 
	d="
M148.998169,115.058037 
	C148.606140,113.319733 148.475281,111.458191 147.733002,109.885155 
	C147.212128,108.781281 145.570129,107.139236 144.923477,107.338997 
	C141.330460,108.448860 140.360580,105.933441 139.035233,103.348663 
	C145.226944,103.998161 149.918304,107.917076 154.700378,111.524719 
	C156.149704,112.618095 156.873459,114.673271 157.964767,116.643951 
	C155.512299,116.259537 153.024597,115.519073 149.989136,114.921158 
	C149.441391,115.063713 148.998169,115.058037 148.998169,115.058037 
z"/>
<path fill="#FDFEFD" opacity="1.000000" stroke="none" 
	d="
M92.706993,92.703346 
	C90.378906,93.765579 87.757820,94.531151 84.723686,95.660980 
	C83.868782,95.995186 83.426910,95.965134 82.953110,95.600105 
	C82.406815,94.702263 81.977844,93.785713 81.363388,93.637337 
	C78.609261,92.972282 75.802338,92.525856 73.014473,92.000534 
	C73.015266,91.555275 73.016052,91.110023 73.032173,90.331093 
	C79.502998,90.800507 85.958496,91.603600 92.706993,92.703346 
z"/>
<path fill="#FDFEFD" opacity="1.000000" stroke="none" 
	d="
M138.995270,101.627060 
	C138.837158,101.983330 138.623123,102.028061 138.518875,101.941124 
	C134.331787,98.449402 131.110275,93.561378 125.054909,92.349373 
	C127.072136,92.099350 129.165634,92.044632 131.212204,92.328362 
	C136.332001,93.038139 137.404587,97.396019 138.995270,101.627060 
z"/>
<path fill="#FDFEFD" opacity="1.000000" stroke="none" 
	d="
M168.931396,120.636795 
	C168.717072,121.169746 168.446304,121.365639 168.149170,121.505531 
	C166.518066,122.273476 164.880524,123.027710 163.245178,123.786644 
	C162.830124,122.142006 162.415054,120.497375 162.000000,118.426369 
	C164.287598,118.757965 166.575180,119.515930 168.931396,120.636795 
z"/>
<path fill="#FEFEFD" opacity="1.000000" stroke="none" 
	d="
M42.946098,27.654600 
	C41.484528,28.165981 39.968906,28.332117 37.878777,28.774189 
	C36.527634,28.724998 35.750988,28.399870 35.118294,27.733498 
	C35.174881,25.261477 35.087517,23.130701 35.000153,20.999924 
	C37.630783,23.103067 40.261414,25.206211 42.946098,27.654600 
z"/>
<path fill="#FDFEFC" opacity="1.000000" stroke="none" 
	d="
M13.000183,17.023458 
	C14.421309,16.018772 15.842436,15.014087 17.631819,14.004578 
	C18.332779,15.760472 18.665482,17.521191 18.546999,19.666084 
	C17.211658,20.177298 16.327503,20.304337 15.291513,20.419935 
	C15.139679,20.408497 14.932611,20.185205 14.935656,19.849201 
	C14.292528,18.683283 13.646356,17.853371 13.000183,17.023458 
z"/>
<path fill="#FDFEFC" opacity="1.000000" stroke="none" 
	d="
M98.999649,89.249771 
	C100.429733,87.501076 101.805161,85.945221 103.302681,84.517410 
	C105.258163,82.652946 107.151955,81.700966 108.181335,85.846222 
	C108.282593,86.253830 108.257607,86.333984 107.891769,86.233887 
	C105.330513,87.755646 103.135094,89.377502 100.648590,90.977661 
	C99.904602,90.637039 99.451691,90.318115 98.998779,89.999184 
	C98.998779,89.999184 98.999298,89.499573 98.999649,89.249771 
z"/>
<path fill="#FEFEFD" opacity="1.000000" stroke="none" 
	d="
M26.999723,20.999702 
	C28.871658,20.503462 30.743595,20.007221 32.671707,20.070518 
	C32.460720,22.433720 32.193562,24.237381 31.606121,26.040771 
	C30.857145,26.031910 30.428453,26.023317 29.996874,25.660372 
	C28.995899,23.870581 27.997810,22.435143 26.999723,20.999702 
z"/>
<path fill="#FDFEFC" opacity="1.000000" stroke="none" 
	d="
M26.666454,20.999710 
	C27.997810,22.435143 28.995899,23.870581 29.689825,25.532631 
	C27.909334,25.561859 26.433004,25.364479 24.665098,25.133213 
	C23.890120,24.787901 23.406719,24.476475 22.949589,23.808710 
	C22.962509,22.976175 22.949160,22.499983 23.242163,21.996908 
	C24.032373,21.646580 24.516232,21.323132 25.000090,20.999683 
	C25.444454,20.999693 25.888819,20.999704 26.666454,20.999710 
z"/>
<path fill="#FDFEFC" opacity="1.000000" stroke="none" 
	d="
M31.926405,26.041044 
	C32.193562,24.237381 32.460720,22.433720 32.863937,20.314991 
	C33.000000,19.999924 33.500000,19.999935 33.857918,20.219313 
	C34.415276,20.712311 34.676670,20.899374 35.000019,20.999878 
	C35.000019,20.999878 35.000000,21.000000 35.000076,20.999962 
	C35.087517,23.130701 35.174881,25.261477 34.836437,27.600855 
	C33.582554,27.219984 32.754478,26.630514 31.926405,26.041044 
z"/>
<path fill="#DAFADA" opacity="1.000000" stroke="none" 
	d="
M22.935810,22.023788 
	C22.949160,22.499983 22.962509,22.976175 22.583481,23.804985 
	C19.941853,22.915525 17.692600,21.673449 15.443347,20.431374 
	C16.327503,20.304337 17.211658,20.177298 18.544849,20.048687 
	C19.767668,20.373470 20.541449,20.699827 21.745678,21.264067 
	C22.375334,21.754519 22.628563,21.928465 22.935810,22.023788 
z"/>
<path fill="#FDFEFD" opacity="1.000000" stroke="none" 
	d="
M172.007599,128.601624 
	C167.521500,127.088539 172.767380,123.920921 171.025452,121.326340 
	C175.303986,122.842194 171.779480,125.787689 172.007599,128.601624 
z"/>
<path fill="#FDFEFD" opacity="1.000000" stroke="none" 
	d="
M98.654510,90.052429 
	C99.451691,90.318115 99.904602,90.637039 100.663574,91.250641 
	C100.996681,91.725502 101.023735,91.905693 100.917130,92.307266 
	C100.347214,92.793556 99.910942,93.058464 99.080101,93.230965 
	C98.147316,93.125473 97.609116,93.112396 97.070908,93.099319 
	C97.070908,93.099319 97.034500,93.048256 97.016190,93.022751 
	C97.435326,92.033394 97.872780,91.069534 98.654510,90.052429 
z"/>
<path fill="#FEFEFD" opacity="1.000000" stroke="none" 
	d="
M48.811012,31.732109 
	C47.690750,31.562534 46.381496,31.125221 45.036156,30.343916 
	C46.207386,30.488071 47.414707,30.976219 48.811012,31.732109 
z"/>
<path fill="#FDFEFD" opacity="1.000000" stroke="none" 
	d="
M73.388245,86.996002 
	C73.040543,86.556602 73.032776,86.110657 73.046021,85.330696 
	C73.883942,85.301033 74.700836,85.605400 75.517738,85.909760 
	C74.921219,86.269661 74.324699,86.629570 73.388245,86.996002 
z"/>
<path fill="#FEFEFD" opacity="1.000000" stroke="none" 
	d="
M23.242163,21.996908 
	C22.628563,21.928465 22.375334,21.754519 22.060751,21.299793 
	C22.837713,20.895985 23.730045,20.694332 24.811234,20.746181 
	C24.516232,21.323132 24.032373,21.646580 23.242163,21.996908 
z"/>
<path fill="#FEFEFD" opacity="1.000000" stroke="none" 
	d="
M34.892109,20.780529 
	C34.676670,20.899374 34.415276,20.712311 34.107918,20.219345 
	C34.323341,20.100508 34.584743,20.287567 34.892109,20.780529 
z"/>
<path fill="#0F53ED" opacity="1.000000" stroke="none" 
	d="
M99.474670,93.323364 
	C99.910942,93.058464 100.347214,92.793556 101.254196,92.248840 
	C103.902473,90.090675 106.080040,88.212334 108.257607,86.333984 
	C108.257607,86.333984 108.282593,86.253830 108.246017,86.233597 
	C108.862129,86.263184 109.514824,86.313011 110.496445,86.389252 
	C112.560349,87.933701 114.295319,89.451736 116.449165,91.384674 
	C117.558731,92.224899 118.249420,92.650223 118.940102,93.075554 
	C118.940102,93.075554 119.000641,93.002716 119.087509,93.340950 
	C120.771294,94.805786 122.368210,95.932396 123.965126,97.059006 
	C124.069138,97.390709 124.270279,97.645836 124.920578,98.205673 
	C126.493729,99.431084 127.714859,100.275200 128.935989,101.119316 
	C129.647385,101.754097 130.358795,102.388878 131.453247,103.433487 
	C132.883423,104.574921 133.930511,105.306526 134.977600,106.038132 
	C135.702942,106.682846 136.428268,107.327560 137.554825,108.383514 
	C140.289352,110.549133 142.622665,112.303505 144.955978,114.057869 
	C144.955978,114.057869 144.998856,114.001411 145.042755,114.272186 
	C145.395233,114.665016 145.703827,114.787064 146.012421,114.909119 
	C146.012421,114.909119 146.212845,115.184746 146.508514,115.534546 
	C147.859055,116.608505 148.913925,117.332664 149.968796,118.056824 
	C152.313477,120.033058 154.658157,122.009285 157.417984,124.418396 
	C158.533722,125.271362 159.234329,125.691452 159.934937,126.111542 
	C160.037979,126.432785 160.234619,126.679405 160.822525,127.178459 
	C161.423004,127.623444 161.725830,127.741364 162.028641,127.859291 
	C162.028641,127.859291 162.243637,128.148804 162.538177,128.504227 
	C163.537674,129.271164 164.242630,129.682678 164.947571,130.094193 
	C165.655212,130.745499 166.362854,131.396820 167.465942,132.451981 
	C168.908920,133.564545 169.956406,134.273270 171.003891,134.982010 
	C171.003891,134.982010 170.999710,135.002365 171.121216,135.307724 
	C172.823593,136.751251 174.404449,137.889420 175.985321,139.027573 
	C176.194427,139.279694 176.403549,139.531799 177.000916,140.218674 
	C179.961304,140.932465 182.533463,141.211472 185.400436,141.563263 
	C186.093521,141.583878 186.491776,141.531723 187.328018,141.636978 
	C190.554382,141.684418 193.342789,141.574432 196.490967,141.552338 
	C197.591095,141.670380 198.331436,141.700546 199.182281,142.162827 
	C199.558899,145.056244 199.824982,147.517517 200.029572,150.313782 
	C200.002655,151.100143 200.037216,151.551514 199.839905,152.148590 
	C199.422745,152.603928 199.237457,152.913574 199.052170,153.223221 
	C198.600861,153.232712 198.149551,153.242188 197.099518,153.215240 
	C196.322342,153.241730 196.143860,153.304626 195.965363,153.367523 
	C190.980148,153.328064 185.994934,153.288605 180.144211,153.185699 
	C177.854752,153.074524 176.430801,153.026779 175.006851,152.979034 
	C175.006851,152.979034 174.653320,152.740402 174.483856,152.734528 
	C174.314407,152.728638 174.289627,152.637558 174.179688,152.395721 
	C173.747116,152.038330 173.424484,151.922775 172.933151,151.578537 
	C171.994507,150.814407 171.224579,150.278961 170.322601,149.440765 
	C169.140854,148.397507 168.091156,147.656998 166.925110,146.691559 
	C166.383621,146.205139 165.958481,145.943634 165.387985,145.384766 
	C164.189758,144.339264 163.136902,143.591110 161.965363,142.629547 
	C161.613724,142.162140 161.325134,142.026367 160.858459,141.708405 
	C159.506897,140.572983 158.277802,139.737976 156.939377,138.684753 
	C156.611237,138.202347 156.331802,138.047836 155.879425,137.693527 
	C154.180405,136.248459 152.593674,135.112869 150.866852,133.764633 
	C150.436996,133.382019 150.147217,133.212036 149.763245,132.749939 
	C148.823761,131.924896 147.978500,131.391983 147.081055,130.930527 
	C147.028870,131.001999 147.124344,130.857544 147.001373,130.550400 
	C144.931061,128.805374 142.983704,127.367493 140.889038,125.680984 
	C139.966751,124.874947 139.191788,124.317551 138.271790,123.453552 
	C135.767578,121.399841 133.408371,119.652733 131.049179,117.905624 
	C130.957458,117.572975 130.762024,117.320625 130.109604,116.768311 
	C128.170959,115.259331 126.585609,114.130600 125.000259,113.001877 
	C124.789711,112.742867 124.579155,112.483849 124.019646,111.837852 
	C122.460388,110.615921 121.250092,109.780968 120.039803,108.946014 
	C120.039803,108.946014 120.000748,108.998970 119.949402,108.732666 
	C119.586746,108.346687 119.275429,108.226997 118.964111,108.107307 
	C117.341812,106.708336 115.719513,105.309364 113.660110,103.468750 
	C110.836845,100.540771 108.451614,98.852150 106.073318,103.035538 
	C105.734222,103.094772 105.449600,103.252373 104.758492,103.765335 
	C102.867897,105.349396 101.438263,106.676476 100.008636,108.003540 
	C99.682724,108.073082 99.407097,108.230598 98.748245,108.725662 
	C97.741241,109.559013 97.167755,110.142799 96.594261,110.726593 
	C94.167397,112.601593 91.740532,114.476585 88.800323,116.662872 
	C87.200027,117.987885 86.113075,119.001625 85.026123,120.015366 
	C84.692474,120.064850 84.411797,120.213997 83.733932,120.714828 
	C82.206139,121.986664 81.128502,123.006493 80.050865,124.026321 
	C79.710434,124.094215 79.430084,124.262314 78.787598,124.796127 
	C77.794907,125.634087 77.224426,126.206512 76.653946,126.778931 
	C76.204376,127.063271 75.754807,127.347610 74.780685,127.600975 
	C73.941986,121.163925 73.627853,114.757843 73.288116,107.829758 
	C68.207466,107.829758 63.405609,107.679581 58.631077,107.973419 
	C57.808163,108.024071 57.101349,109.961105 56.340904,111.026787 
	C56.293217,112.086891 56.245529,113.146996 56.129253,115.036804 
	C56.138245,118.579559 56.215820,121.292603 56.293396,124.005646 
	C56.228729,129.154282 56.287491,134.309113 56.028633,139.447968 
	C55.944492,141.118332 55.030106,142.746872 53.935654,144.721008 
	C52.828213,145.640121 52.280575,146.232742 51.732937,146.825378 
	C50.579559,147.669479 49.426182,148.513580 47.775143,149.658539 
	C46.363186,150.863602 45.448887,151.767792 44.534592,152.671967 
	C43.919685,152.837799 43.304779,153.003632 41.948624,153.175476 
	C38.773129,153.253052 36.338882,153.324600 33.904636,153.396149 
	C32.871208,153.345673 31.837780,153.295181 30.153309,153.205063 
	C29.326870,153.232498 29.151470,153.299576 28.976074,153.366638 
	C28.554987,152.753174 28.133900,152.139725 28.120022,151.222046 
	C28.710669,150.633011 28.894110,150.348190 29.077549,150.063385 
	C29.077549,150.063385 29.001015,150.002869 29.355789,149.999054 
	C30.620672,149.097763 31.530785,148.200302 32.440895,147.302841 
	C32.440899,147.302841 32.765499,147.204300 33.197136,147.006729 
	C35.248207,145.336395 36.867649,143.863647 38.662884,142.313110 
	C38.838680,142.235321 38.994820,141.882385 39.272957,141.851608 
	C40.084129,141.313843 40.617165,140.806870 41.516342,140.201309 
	C42.918945,138.379669 44.823338,136.671204 44.852566,134.931244 
	C45.059174,122.630844 44.880913,110.323997 45.008320,97.822350 
	C45.463314,97.394066 45.735416,97.162636 46.261673,97.005692 
	C46.678280,97.011002 46.840733,96.941826 47.373421,96.941811 
	C48.492100,96.962402 49.240540,96.913841 50.243977,96.960739 
	C50.669079,96.992821 50.839176,96.929443 51.432991,96.939117 
	C53.572498,96.959808 55.288288,96.907448 57.450645,96.977509 
	C61.593895,96.994087 65.290573,96.888237 69.447418,96.854797 
	C74.264389,96.914536 78.621201,96.901855 83.234055,97.049789 
	C83.876144,97.311737 84.262177,97.413071 84.648209,97.514397 
	C84.694077,98.770531 84.739952,100.026665 84.769409,102.005318 
	C85.524445,102.913902 86.295883,103.099968 87.067329,103.286026 
	C89.939278,101.074409 92.811226,98.862785 96.196236,96.333084 
	C97.631088,95.117790 98.552872,94.220573 99.474670,93.323364 
z"/>
<path fill="#32CD39" opacity="1.000000" stroke="none" 
	d="
M15.291513,20.419935 
	C17.692600,21.673449 19.941853,22.915525 22.557213,24.161325 
	C23.406719,24.476475 23.890120,24.787901 24.859081,25.413647 
	C29.891657,27.828312 34.438671,29.928659 38.985683,32.029007 
	C39.213680,32.274021 39.489864,32.437790 40.245579,32.796234 
	C41.452946,33.371277 42.228966,33.670387 43.004990,33.969498 
	C43.228176,34.220875 43.501431,34.392597 44.281067,34.778286 
	C51.508408,38.302200 58.279430,41.532497 65.050453,44.762798 
	C65.804176,45.196640 66.557907,45.630478 67.794891,46.362038 
	C68.847824,46.788742 69.417511,46.917732 69.987190,47.046719 
	C70.231277,47.277142 70.475357,47.507568 70.946312,47.850555 
	C71.209618,61.450695 71.267761,74.938301 71.246933,88.425789 
	C71.244980,89.693039 70.745209,90.959511 69.785278,92.500458 
	C66.727501,92.837624 64.361008,92.900673 61.768867,92.842186 
	C61.375717,92.754333 61.208206,92.788010 60.847641,92.582123 
	C60.391628,91.569649 60.128677,90.796730 59.992279,89.689690 
	C60.033524,88.895279 59.948212,88.435005 59.947102,87.611061 
	C59.970196,86.508270 59.909088,85.769135 59.984474,84.575958 
	C60.147644,75.461632 60.188126,66.801353 60.191860,58.141064 
	C60.192871,55.806328 60.452606,53.237072 56.800659,52.896034 
	C56.330841,52.540642 56.016384,52.460068 55.468773,52.208275 
	C47.829224,48.344143 40.394737,44.760880 32.797520,41.047749 
	C32.634789,40.917881 32.222004,40.863190 32.047638,40.559845 
	C28.991686,38.787952 26.110104,37.319401 22.398300,35.427746 
	C22.268734,38.270294 22.121208,40.020931 22.119522,41.771709 
	C22.100805,61.212582 22.136713,80.653549 22.093220,100.094345 
	C22.051592,118.701057 21.933779,137.307587 21.849449,155.914200 
	C21.849449,155.914200 21.410664,155.957031 20.780842,155.956543 
	C19.318132,155.944794 18.485270,155.926636 17.652349,155.923370 
	C11.167854,155.897873 11.168143,155.898743 11.168107,149.382278 
	C11.168044,138.052887 11.220124,126.723190 11.152382,115.394203 
	C11.085728,104.247101 10.897365,93.100739 10.852444,81.496185 
	C10.872470,73.029411 10.802459,65.020508 10.876198,56.561188 
	C11.039413,45.326847 11.148235,34.541866 11.020989,23.759666 
	C10.985289,20.734537 11.769035,19.350189 14.932611,20.185205 
	C14.932611,20.185205 15.139679,20.408497 15.291513,20.419935 
z"/>
<path fill="#FEFEFE" opacity="1.000000" stroke="none" 
	d="
M32.222004,40.863190 
	C32.222004,40.863190 32.634789,40.917881 32.854279,41.382729 
	C38.575634,44.972500 44.008503,48.230282 49.619785,51.144527 
	C51.392441,52.065163 53.642345,52.066875 55.673832,52.489140 
	C56.016384,52.460068 56.330841,52.540642 56.803875,53.315018 
	C57.343086,56.327526 57.954906,58.751122 57.999504,61.185116 
	C58.132732,68.455475 58.043686,75.729904 57.657234,83.007515 
	C55.804600,83.676239 54.336182,84.340195 54.117027,84.439293 
	C54.667091,87.486290 55.423008,89.438698 55.270889,91.317581 
	C54.993492,94.743942 52.112129,93.986969 49.899521,93.970741 
	C48.594257,93.961174 47.294327,93.631325 45.986431,93.501755 
	C41.022472,93.009987 37.304192,96.997276 38.420967,101.756149 
	C39.908089,108.093185 37.508640,114.912018 40.870876,121.035637 
	C41.163013,121.567711 40.481735,122.588692 40.363876,123.398773 
	C39.559116,128.930084 38.784130,134.465744 37.672310,140.044357 
	C36.909271,140.758469 36.473461,141.428207 35.865437,142.335800 
	C35.145020,142.763947 34.596821,142.954239 34.048622,143.144562 
	C33.185085,142.765594 32.302795,142.026337 31.461252,142.070099 
	C27.854536,142.257767 26.989941,140.432800 26.951807,137.169983 
	C26.715294,116.932312 26.190231,96.697220 26.065823,76.459396 
	C26.010921,67.528481 26.398001,58.569370 27.172165,49.674213 
	C27.407074,46.975079 29.608847,44.447121 31.263924,41.434780 
	C31.819399,40.973591 32.020702,40.918388 32.222004,40.863190 
z"/>
<path fill="#DAFADA" opacity="1.000000" stroke="none" 
	d="
M32.047638,40.559845 
	C32.020702,40.918388 31.819399,40.973591 31.309982,41.085838 
	C28.963478,40.490074 26.925087,39.837276 24.478771,39.053837 
	C24.303455,42.899448 24.006907,46.423828 24.003222,49.948509 
	C23.968193,83.439018 24.003195,116.929634 23.927673,150.420013 
	C23.923584,152.233582 23.113760,154.045364 22.264227,155.886078 
	C21.933779,137.307587 22.051592,118.701057 22.093220,100.094345 
	C22.136713,80.653549 22.100805,61.212582 22.119522,41.771709 
	C22.121208,40.020931 22.268734,38.270294 22.398300,35.427746 
	C26.110104,37.319401 28.991686,38.787952 32.047638,40.559845 
z"/>
<path fill="#FDFEFC" opacity="1.000000" stroke="none" 
	d="
M138.416824,123.760147 
	C139.191788,124.317551 139.966751,124.874947 140.897736,126.039047 
	C143.077271,128.049683 145.100800,129.453613 147.124344,130.857544 
	C147.124344,130.857544 147.028870,131.001999 147.074127,131.278198 
	C148.032089,132.050278 148.944778,132.546173 149.857452,133.042068 
	C150.147217,133.212036 150.436996,133.382019 150.885437,134.121323 
	C152.693314,135.794769 154.342514,136.898895 155.991714,138.003006 
	C156.331802,138.047836 156.611237,138.202347 156.947052,139.047180 
	C158.369690,140.421494 159.675308,141.215164 160.980927,142.008835 
	C161.325134,142.026367 161.613724,142.162140 161.969696,143.010162 
	C163.239594,144.296814 164.386459,144.989471 165.533340,145.682129 
	C165.958481,145.943634 166.383621,146.205139 166.938263,147.063965 
	C168.196701,148.355362 169.325684,149.049438 170.454651,149.743500 
	C171.224579,150.278961 171.994507,150.814407 173.013306,151.851654 
	C173.604675,152.448166 173.947144,152.542862 174.289627,152.637558 
	C174.289627,152.637558 174.314407,152.728638 174.270950,152.746735 
	C171.437622,156.056396 164.693237,155.514679 163.448486,151.317886 
	C161.580536,145.019897 155.675415,143.696960 151.678436,140.071899 
	C148.410385,137.107910 145.054535,134.225967 141.572250,131.520493 
	C140.241119,130.486313 138.450348,130.043732 136.223389,129.040756 
	C136.168671,128.003189 136.084717,126.410744 136.406281,124.387329 
	C137.346832,123.890968 137.881821,123.825554 138.416824,123.760147 
z"/>
<path fill="#DAFADA" opacity="1.000000" stroke="none" 
	d="
M10.762407,81.954048 
	C10.897365,93.100739 11.085728,104.247101 11.152382,115.394203 
	C11.220124,126.723190 11.168044,138.052887 11.168107,149.382278 
	C11.168143,155.898743 11.167854,155.897873 17.652349,155.923370 
	C18.485270,155.926636 19.318132,155.944794 20.591843,156.070007 
	C20.248859,156.774063 19.465054,157.364182 18.340698,157.960526 
	C9.044576,157.956085 9.041101,157.950607 9.042421,149.167831 
	C9.045639,127.757629 9.046703,106.347420 9.077774,84.167747 
	C9.658745,82.916870 10.210576,82.435463 10.762407,81.954048 
z"/>
<path fill="#3BCB41" opacity="1.000000" stroke="none" 
	d="
M105.033363,124.879845 
	C105.288757,125.104057 105.544151,125.328262 105.891724,126.044365 
	C106.064545,126.709404 106.145195,126.882545 106.225845,127.055679 
	C106.149529,129.727325 106.073219,132.398972 105.487732,135.507843 
	C101.689644,135.898727 98.400742,135.852356 95.111832,135.806000 
	C95.197723,132.368195 95.283623,128.930374 95.953278,125.251297 
	C96.710762,124.928925 96.884483,124.847809 97.058212,124.766701 
	C99.067841,124.797707 101.077469,124.828720 103.779694,124.937454 
	C104.659309,124.970062 104.846336,124.924950 105.033363,124.879845 
z"/>
<path fill="#CDF6CE" opacity="1.000000" stroke="none" 
	d="
M111.142120,140.173630 
	C110.772194,137.083771 110.153755,133.999634 110.082275,130.902878 
	C109.915504,123.677216 114.640175,121.066330 121.470993,124.670746 
	C118.926811,125.118645 116.642685,124.708534 114.643379,125.285454 
	C113.435867,125.633911 111.809219,127.571419 111.883110,128.695541 
	C112.044655,131.153030 112.567650,135.145767 114.007698,135.689011 
	C120.079819,137.979645 122.456100,135.890915 122.317268,129.475128 
	C122.284950,127.981667 122.112854,126.491234 122.005074,124.999405 
	C126.202591,127.708488 123.254082,131.701767 123.722343,135.067886 
	C123.910057,136.417221 123.195625,137.892090 122.540543,139.718628 
	C121.757477,140.136841 121.325691,140.146255 120.491852,140.130890 
	C118.747108,140.120377 117.404427,140.134598 115.655754,140.072266 
	C113.880554,140.055023 112.511337,140.114334 111.142120,140.173630 
z"/>
<path fill="#2ACA32" opacity="1.000000" stroke="none" 
	d="
M116.061737,140.148834 
	C117.404427,140.134598 118.747108,140.120377 120.566360,140.566559 
	C121.040787,144.220688 121.038651,147.414398 121.036514,150.608124 
	C119.023148,150.659729 117.009781,150.711334 114.504059,150.415222 
	C113.166481,149.323318 112.321266,148.579163 111.476059,147.834991 
	C111.424393,146.209961 111.372726,144.584915 111.696693,142.472855 
	C113.402122,141.373489 114.731926,140.761154 116.061737,140.148834 
z"/>
<path fill="#28CB30" opacity="1.000000" stroke="none" 
	d="
M103.877487,150.492096 
	C102.550133,150.560654 101.222771,150.629227 99.368805,150.288910 
	C95.304382,148.603500 95.448410,145.467941 96.319206,143.016022 
	C96.729996,141.859344 99.574707,141.366379 101.402687,140.978561 
	C102.810783,140.679794 104.353317,141.014694 105.836075,141.067825 
	C105.917816,143.072037 105.999550,145.076263 105.957626,147.714554 
	C105.770454,148.514236 105.706955,148.679855 105.393677,148.914200 
	C104.721756,149.485992 104.299622,149.989044 103.877487,150.492096 
z"/>
<path fill="#FDFEFC" opacity="1.000000" stroke="none" 
	d="
M199.071762,141.730698 
	C198.331436,141.700546 197.591095,141.670380 196.479370,141.329193 
	C196.014679,140.735031 195.956741,140.444824 195.934174,140.147568 
	C197.387100,138.086060 198.840042,136.024536 200.842789,133.182938 
	C203.672989,140.664139 205.930923,146.960602 202.828461,153.752609 
	C202.665802,154.108734 201.855957,154.169205 201.239929,153.881592 
	C200.778900,152.931549 200.425323,152.467209 200.071777,152.002884 
	C200.037216,151.551514 200.002655,151.100143 200.309631,150.039703 
	C200.764038,147.520462 201.058441,145.594681 200.896072,143.708221 
	C200.835297,143.001938 199.711105,142.387192 199.071762,141.730698 
z"/>
<path fill="#C4DCF9" opacity="1.000000" stroke="none" 
	d="
M56.643185,110.811333 
	C57.101349,109.961105 57.808163,108.024071 58.631077,107.973419 
	C63.405609,107.679581 68.207466,107.829758 73.288116,107.829758 
	C73.627853,114.757843 73.941986,121.163925 74.620453,127.816589 
	C73.212624,129.218765 72.362404,128.973663 72.219795,126.733788 
	C71.966728,122.758972 71.812180,118.734741 72.150505,114.776833 
	C72.536469,110.261543 71.086533,108.176056 66.398338,108.986061 
	C63.248692,109.530235 60.096512,110.059784 56.643185,110.811333 
z"/>
<path fill="#5DC862" opacity="1.000000" stroke="none" 
	d="
M105.929108,140.747314 
	C104.353317,141.014694 102.810783,140.679794 101.402687,140.978561 
	C99.574707,141.366379 96.729996,141.859344 96.319206,143.016022 
	C95.448410,145.467941 95.304382,148.603500 98.976616,150.205750 
	C98.660316,150.688858 98.209595,150.846237 97.156174,150.944794 
	C96.383476,150.903778 96.213478,150.921570 96.043488,150.939362 
	C91.926605,147.734833 94.546387,143.540436 94.986038,139.673264 
	C98.912445,139.451294 102.252525,139.308609 105.592613,139.165924 
	C105.735794,139.586212 105.878975,140.006516 105.929108,140.747314 
z"/>
<path fill="#DAFADA" opacity="1.000000" stroke="none" 
	d="
M105.903610,138.998413 
	C102.252525,139.308609 98.912445,139.451294 95.281357,139.403442 
	C94.998390,138.359711 95.006416,137.506531 95.063141,136.229675 
	C98.400742,135.852356 101.689644,135.898727 105.426102,135.949860 
	C105.987305,136.913391 106.100960,137.872162 105.903610,138.998413 
z"/>
<path fill="#6FD173" opacity="1.000000" stroke="none" 
	d="
M120.950981,150.760040 
	C121.038651,147.414398 121.040787,144.220688 120.968414,140.591309 
	C121.325691,140.146255 121.757477,140.136841 122.514313,140.158234 
	C122.734764,143.594376 122.630180,146.999695 121.988098,150.723999 
	C121.279480,151.113052 121.108353,151.183151 120.937225,151.253250 
	C120.937225,151.253250 120.865448,150.911987 120.950981,150.760040 
z"/>
<path fill="#C3DBF8" opacity="1.000000" stroke="none" 
	d="
M195.494339,140.127838 
	C195.956741,140.444824 196.014679,140.735031 196.119568,141.241302 
	C193.342789,141.574432 190.554382,141.684418 187.334137,141.408295 
	C186.990845,140.730423 187.053497,140.433228 187.090225,140.130554 
	C189.744995,140.123077 192.399750,140.115585 195.494339,140.127838 
z"/>
<path fill="#D0E4F9" opacity="1.000000" stroke="none" 
	d="
M138.271790,123.453552 
	C137.881821,123.825554 137.346832,123.890968 136.407013,123.956810 
	C134.352234,122.170647 132.702286,120.384048 131.050751,118.251534 
	C133.408371,119.652733 135.767578,121.399841 138.271790,123.453552 
z"/>
<path fill="#C3DBF8" opacity="1.000000" stroke="none" 
	d="
M185.105621,141.490494 
	C182.533463,141.211472 179.961304,140.932465 177.236511,140.302704 
	C178.887405,139.866684 180.690948,139.781387 182.771805,139.438126 
	C183.438309,139.159927 183.827469,139.139679 184.552460,139.403961 
	C184.960724,140.289154 185.033173,140.889832 185.105621,141.490494 
z"/>
<path fill="#C4DCF9" opacity="1.000000" stroke="none" 
	d="
M34.009003,153.757996 
	C36.338882,153.324600 38.773129,153.253052 41.652279,153.292175 
	C39.435913,153.641861 36.774643,153.880859 34.009003,153.757996 
z"/>
<path fill="#C2DCF9" opacity="1.000000" stroke="none" 
	d="
M106.491714,103.047516 
	C108.451614,98.852150 110.836845,100.540771 113.371674,103.325729 
	C111.316933,103.436066 109.113525,103.247780 106.491714,103.047516 
z"/>
<path fill="#C4DCF9" opacity="1.000000" stroke="none" 
	d="
M33.905682,143.444153 
	C34.596821,142.954239 35.145020,142.763947 36.277546,142.337952 
	C37.403606,142.198471 37.945347,142.294678 38.487087,142.390884 
	C36.867649,143.863647 35.248207,145.336395 33.304317,146.875275 
	C33.240822,145.875504 33.501781,144.809631 33.905682,143.444153 
z"/>
<path fill="#D0E4F9" opacity="1.000000" stroke="none" 
	d="
M125.022125,113.356094 
	C126.585609,114.130600 128.170959,115.259331 129.876617,116.694519 
	C128.345963,115.904099 126.694984,114.807205 125.022125,113.356094 
z"/>
<path fill="#C2DCF9" opacity="1.000000" stroke="none" 
	d="
M100.373123,108.020386 
	C101.438263,106.676476 102.867897,105.349396 104.623856,103.973206 
	C103.545982,105.295135 102.141800,106.666183 100.373123,108.020386 
z"/>
<path fill="#C4DCF9" opacity="1.000000" stroke="none" 
	d="
M56.534443,123.701233 
	C56.215820,121.292603 56.138245,118.579559 56.190243,115.431244 
	C56.471706,117.796257 56.623600,120.596535 56.534443,123.701233 
z"/>
<path fill="#C3DBF8" opacity="1.000000" stroke="none" 
	d="
M175.151703,153.298645 
	C176.430801,153.026779 177.854752,153.074524 179.687973,153.248291 
	C178.644562,156.359299 176.983093,155.235291 175.151703,153.298645 
z"/>
<path fill="#6FD173" opacity="1.000000" stroke="none" 
	d="
M111.305534,148.194824 
	C112.321266,148.579163 113.166481,149.323318 114.077652,150.349274 
	C113.140747,149.938934 112.137886,149.246780 111.305534,148.194824 
z"/>
<path fill="#D0E4F9" opacity="1.000000" stroke="none" 
	d="
M120.049789,109.301834 
	C121.250092,109.780968 122.460388,110.615921 123.778580,111.752869 
	C122.610909,111.255798 121.335335,110.456726 120.049789,109.301834 
z"/>
<path fill="#C4DCF9" opacity="1.000000" stroke="none" 
	d="
M80.414810,124.038147 
	C81.128502,123.006493 82.206139,121.986664 83.605499,120.920090 
	C82.877731,121.932220 81.828239,122.991096 80.414810,124.038147 
z"/>
<path fill="#C4DCF9" opacity="1.000000" stroke="none" 
	d="
M85.391541,120.034218 
	C86.113075,119.001625 87.200027,117.987885 88.609497,116.929779 
	C87.873657,117.941284 86.815308,118.997177 85.391541,120.034218 
z"/>
<path fill="#C4DCF9" opacity="1.000000" stroke="none" 
	d="
M44.906792,152.750229 
	C45.448887,151.767792 46.363186,150.863602 47.599762,149.911987 
	C47.041027,150.852539 46.160011,151.840500 44.906792,152.750229 
z"/>
<path fill="#6FD173" opacity="1.000000" stroke="none" 
	d="
M115.655754,140.072266 
	C114.731926,140.761154 113.402122,141.373489 111.766556,142.071503 
	C111.322311,141.725235 111.183823,141.293304 111.093735,140.517487 
	C112.511337,140.114334 113.880554,140.055023 115.655754,140.072266 
z"/>
<path fill="#C4DCF9" opacity="1.000000" stroke="none" 
	d="
M32.072544,147.236023 
	C31.530785,148.200302 30.620672,149.097763 29.387764,150.035950 
	C29.944706,149.107529 30.824448,148.138367 32.072544,147.236023 
z"/>
<path fill="#FDFEFC" opacity="1.000000" stroke="none" 
	d="
M185.400436,141.563263 
	C185.033173,140.889832 184.960724,140.289154 184.844803,139.390137 
	C185.435623,139.252075 186.069901,139.412354 186.897217,139.851593 
	C187.053497,140.433228 186.990845,140.730423 186.896149,141.250854 
	C186.491776,141.531723 186.093521,141.583878 185.400436,141.563263 
z"/>
<path fill="#C3DBF8" opacity="1.000000" stroke="none" 
	d="
M199.839890,152.148590 
	C200.425323,152.467209 200.778900,152.931549 201.038544,153.619293 
	C200.420059,153.780960 199.895477,153.719208 199.211548,153.440338 
	C199.237457,152.913574 199.422745,152.603928 199.839890,152.148590 
z"/>
<path fill="#C4DCF9" opacity="1.000000" stroke="none" 
	d="
M52.077579,146.860611 
	C52.280575,146.232742 52.828213,145.640121 53.689682,145.027313 
	C53.476418,145.636703 52.949322,146.266281 52.077579,146.860611 
z"/>
<path fill="#B9EFBB" opacity="1.000000" stroke="none" 
	d="
M105.643463,148.845459 
	C105.706955,148.679855 105.770454,148.514236 106.002594,148.142822 
	C106.323738,148.610260 106.476250,149.283508 106.260269,149.696548 
	C105.809013,149.239380 105.726242,149.042419 105.643463,148.845459 
z"/>
<path fill="#C2DCF9" opacity="1.000000" stroke="none" 
	d="
M96.953018,110.783524 
	C97.167755,110.142799 97.741241,109.559013 98.627502,108.934372 
	C98.397446,109.542503 97.854614,110.191483 96.953018,110.783524 
z"/>
<path fill="#5DC862" opacity="1.000000" stroke="none" 
	d="
M105.393677,148.914200 
	C105.726242,149.042419 105.809013,149.239380 105.986954,149.742432 
	C105.531914,150.301407 104.981712,150.554306 104.154495,150.649643 
	C104.299622,149.989044 104.721756,149.485992 105.393677,148.914200 
z"/>
<path fill="#C4DCF9" opacity="1.000000" stroke="none" 
	d="
M77.004974,126.824783 
	C77.224426,126.206512 77.794907,125.634087 78.674606,125.018074 
	C78.441223,125.606544 77.898621,126.238594 77.004974,126.824783 
z"/>
<path fill="#B9EFBB" opacity="1.000000" stroke="none" 
	d="
M96.097694,151.125610 
	C96.213478,150.921570 96.383476,150.903778 96.793610,150.976074 
	C96.739807,151.148071 96.445854,151.229980 96.097694,151.125610 
z"/>
<path fill="#DAFBDD" opacity="1.000000" stroke="none" 
	d="
M121.067230,151.390137 
	C121.108353,151.183151 121.279480,151.113052 121.727966,151.041901 
	C121.735962,151.202911 121.466591,151.364975 121.067230,151.390137 
z"/>
<path fill="#C3DBF8" opacity="1.000000" stroke="none" 
	d="
M196.061554,153.520538 
	C196.143860,153.304626 196.322342,153.241730 196.766724,153.278168 
	C196.741013,153.476181 196.449371,153.574860 196.061554,153.520538 
z"/>
<path fill="#C4DCF9" opacity="1.000000" stroke="none" 
	d="
M29.072626,153.517792 
	C29.151470,153.299576 29.326870,153.232498 29.768108,153.258636 
	C29.745693,153.457535 29.457436,153.563248 29.072626,153.517792 
z"/>
<path fill="#BEF4BF" opacity="1.000000" stroke="none" 
	d="
M104.960648,124.693871 
	C104.846336,124.924950 104.659309,124.970062 104.208771,124.897354 
	C104.259476,124.688988 104.573700,124.598442 104.960648,124.693871 
z"/>
<path fill="#C4DCF9" opacity="1.000000" stroke="none" 
	d="
M28.819031,150.103119 
	C28.894110,150.348190 28.710669,150.633011 28.264568,150.948334 
	C28.188108,150.700180 28.374310,150.421524 28.819031,150.103119 
z"/>
<path fill="#D0E4F9" opacity="1.000000" stroke="none" 
	d="
M119.063309,108.338737 
	C119.275429,108.226997 119.586746,108.346687 119.976570,108.714142 
	C119.757561,108.831322 119.460037,108.700745 119.063309,108.338737 
z"/>
<path fill="#BEF4BF" opacity="1.000000" stroke="none" 
	d="
M106.396637,126.947678 
	C106.145195,126.882545 106.064545,126.709404 106.037804,126.254883 
	C106.250298,126.262222 106.408867,126.550949 106.396637,126.947678 
z"/>
<path fill="#BEF4BF" opacity="1.000000" stroke="none" 
	d="
M96.947586,124.599380 
	C96.884483,124.847809 96.710762,124.928925 96.254402,124.956909 
	C96.260162,124.746544 96.548561,124.589294 96.947586,124.599380 
z"/>
<path fill="#FDFEFC" opacity="1.000000" stroke="none" 
	d="
M10.852445,81.496185 
	C10.210576,82.435463 9.658745,82.916870 9.074488,83.699097 
	C7.695149,81.887459 5.472432,79.887520 5.183536,77.639107 
	C4.580997,72.949707 4.612381,68.083603 5.162165,63.381161 
	C5.441319,60.993492 7.411333,58.803505 9.050759,56.344254 
	C9.900526,56.446774 10.316486,56.729183 10.732447,57.011597 
	C10.802459,65.020508 10.872470,73.029411 10.852445,81.496185 
z"/>
<path fill="#DAFADA" opacity="1.000000" stroke="none" 
	d="
M10.876198,56.561188 
	C10.316486,56.729183 9.900526,56.446774 9.259232,56.049721 
	C9.037708,44.985435 8.881463,34.031269 9.189855,23.090206 
	C9.246740,21.072023 11.183549,19.106833 12.626422,17.070320 
	C13.646356,17.853371 14.292528,18.683283 14.935656,19.849201 
	C11.769035,19.350189 10.985289,20.734537 11.020989,23.759666 
	C11.148235,34.541866 11.039413,45.326847 10.876198,56.561188 
z"/>
<path fill="#C3DBF8" opacity="1.000000" stroke="none" 
	d="
M175.972443,138.672058 
	C174.404449,137.889420 172.823593,136.751251 171.130936,135.303635 
	C172.665955,136.101624 174.312759,137.209076 175.972443,138.672058 
z"/>
<path fill="#CCE0F9" opacity="1.000000" stroke="none" 
	d="
M149.985413,117.681412 
	C148.913925,117.332664 147.859055,116.608505 146.671936,115.582794 
	C147.084167,115.209305 147.628616,115.137367 148.585632,115.061737 
	C148.998169,115.058037 149.441391,115.063713 149.661575,115.061974 
	C149.921860,115.808823 149.961960,116.557404 149.985413,117.681412 
z"/>
<path fill="#C3DBF8" opacity="1.000000" stroke="none" 
	d="
M170.975281,134.623077 
	C169.956406,134.273270 168.908920,133.564545 167.740784,132.552231 
	C168.728989,132.920486 169.837830,133.592316 170.975281,134.623077 
z"/>
<path fill="#C3DBF8" opacity="1.000000" stroke="none" 
	d="
M164.918167,129.733551 
	C164.242630,129.682678 163.537674,129.271164 162.706558,128.568756 
	C163.349838,128.642868 164.119308,129.007889 164.918167,129.733551 
z"/>
<path fill="#C3DBF8" opacity="1.000000" stroke="none" 
	d="
M159.914566,125.751427 
	C159.234329,125.691452 158.533722,125.271362 157.714935,124.557755 
	C158.362564,124.639923 159.128372,125.015617 159.914566,125.751427 
z"/>
<path fill="#C3DBF8" opacity="1.000000" stroke="none" 
	d="
M161.944565,127.625282 
	C161.725830,127.741364 161.423004,127.623444 161.049591,127.258606 
	C161.342621,126.976151 161.636459,127.102684 161.944565,127.625282 
z"/>
<path fill="#DAFADA" opacity="1.000000" stroke="none" 
	d="
M64.998901,44.419022 
	C58.279430,41.532497 51.508408,38.302200 44.524925,34.798958 
	C52.080688,35.786045 58.755363,39.409119 64.998901,44.419022 
z"/>
<path fill="#DAFADA" opacity="1.000000" stroke="none" 
	d="
M38.977913,31.711609 
	C34.438671,29.928659 29.891657,27.828312 25.150661,25.447533 
	C26.433004,25.364479 27.909334,25.561859 29.692711,25.886982 
	C30.428453,26.023317 30.857145,26.031910 31.606121,26.040771 
	C32.754478,26.630514 33.582554,27.219984 34.692490,27.942099 
	C35.750988,28.399870 36.527634,28.724998 37.638672,29.067581 
	C38.305428,29.854759 38.637783,30.624483 38.977913,31.711609 
z"/>
<path fill="#DAFADA" opacity="1.000000" stroke="none" 
	d="
M69.972687,46.742085 
	C69.417511,46.917732 68.847824,46.788742 68.120789,46.403389 
	C68.628349,46.243832 69.293259,46.340641 69.972687,46.742085 
z"/>
<path fill="#DAFADA" opacity="1.000000" stroke="none" 
	d="
M42.937145,33.597385 
	C42.228966,33.670387 41.452946,33.371277 40.488594,32.811989 
	C41.156612,32.776299 42.012959,33.000786 42.937145,33.597385 
z"/>
<path fill="#CCE0F9" opacity="1.000000" stroke="none" 
	d="
M144.949081,113.704346 
	C142.622665,112.303505 140.289352,110.549133 137.831696,108.482651 
	C140.118958,109.897301 142.530563,111.624062 144.949081,113.704346 
z"/>
<path fill="#CCE0F9" opacity="1.000000" stroke="none" 
	d="
M123.953102,96.699356 
	C122.368210,95.932396 120.771294,94.805786 119.052307,93.372406 
	C120.600517,94.156990 122.270798,95.248352 123.953102,96.699356 
z"/>
<path fill="#CCE0F9" opacity="1.000000" stroke="none" 
	d="
M128.930084,100.757195 
	C127.714859,100.275200 126.493729,99.431084 125.155289,98.285904 
	C126.333382,98.788254 127.628777,99.591660 128.930084,100.757195 
z"/>
<path fill="#CCE0F9" opacity="1.000000" stroke="none" 
	d="
M134.959381,105.673187 
	C133.930511,105.306526 132.883423,104.574921 131.724945,103.533508 
	C132.722763,103.918549 133.831955,104.613396 134.959381,105.673187 
z"/>
<path fill="#CCE0F9" opacity="1.000000" stroke="none" 
	d="
M118.916687,92.718353 
	C118.249420,92.650223 117.558731,92.224899 116.747269,91.509003 
	C117.382088,91.599335 118.137672,91.980240 118.916687,92.718353 
z"/>
<path fill="#CCE0F9" opacity="1.000000" stroke="none" 
	d="
M145.918930,114.676147 
	C145.703827,114.787064 145.395233,114.665016 145.013672,114.292419 
	C145.235611,114.175644 145.530518,114.309410 145.918930,114.676147 
z"/>
<path fill="#FDFEFC" opacity="1.000000" stroke="none" 
	d="
M37.999542,140.000000 
	C38.784130,134.465744 39.559116,128.930084 40.363876,123.398773 
	C40.481735,122.588692 41.163013,121.567711 40.870876,121.035637 
	C37.508640,114.912018 39.908089,108.093185 38.420967,101.756149 
	C37.304192,96.997276 41.022472,93.009987 45.986431,93.501755 
	C47.294327,93.631325 48.594257,93.961174 49.899521,93.970741 
	C52.112129,93.986969 54.993492,94.743942 55.270889,91.317581 
	C55.423008,89.438698 54.667091,87.486290 54.117027,84.439293 
	C54.336182,84.340195 55.804600,83.676239 57.692589,83.314079 
	C58.690769,84.087250 59.269375,84.558632 59.847980,85.030006 
	C59.909088,85.769135 59.970196,86.508270 59.663624,87.645966 
	C59.485874,88.704292 59.675800,89.364059 59.865726,90.023819 
	C60.128677,90.796730 60.391628,91.569649 60.886768,92.791046 
	C61.410809,93.147583 61.702660,93.055649 61.994514,92.963715 
	C64.361008,92.900673 66.727501,92.837624 69.532745,92.842087 
	C70.889519,92.787720 71.807549,92.665840 72.870026,92.272247 
	C75.802338,92.525856 78.609261,92.972282 81.363388,93.637337 
	C81.977844,93.785713 82.406815,94.702263 82.938431,95.838860 
	C82.955688,96.412582 82.978004,96.889183 82.978004,96.889175 
	C78.621201,96.901855 74.264389,96.914536 69.137619,96.594910 
	C64.579803,96.460106 60.791939,96.657593 57.004078,96.855080 
	C55.288288,96.907448 53.572498,96.959808 51.346420,96.773071 
	C50.553745,96.644402 50.271358,96.754837 49.988976,96.865280 
	C49.240540,96.913841 48.492100,96.962402 47.283226,96.774796 
	C46.551033,96.669495 46.279278,96.800346 46.007515,96.931206 
	C45.735416,97.162636 45.463314,97.394066 44.683762,98.016922 
	C43.826260,100.794823 42.974304,103.232285 43.210751,105.559151 
	C44.400856,117.270927 44.994499,128.903748 41.150208,140.299896 
	C40.617165,140.806870 40.084129,141.313843 39.250587,141.567657 
	C38.633240,140.876328 38.316391,140.438171 37.999542,140.000000 
z"/>
<path fill="#C8DEF9" opacity="1.000000" stroke="none" 
	d="
M99.080093,93.230957 
	C98.552872,94.220573 97.631088,95.117790 96.384842,96.061462 
	C96.303520,95.298325 96.546661,94.488731 96.930359,93.389229 
	C97.609116,93.112396 98.147316,93.125473 99.080093,93.230957 
z"/>
<path fill="#CDE3FC" opacity="1.000000" stroke="none" 
	d="
M86.919693,102.988174 
	C86.295883,103.099968 85.524445,102.913902 84.857224,102.373276 
	C85.564987,102.242592 86.168518,102.466454 86.919693,102.988174 
z"/>
<path fill="#CDE3FC" opacity="1.000000" stroke="none" 
	d="
M83.234055,97.049789 
	C82.978004,96.889183 82.955688,96.412582 82.970367,96.173828 
	C83.426910,95.965134 83.868782,95.995186 84.641708,96.043442 
	C84.938606,96.307991 84.904442,96.554344 84.759239,97.157547 
	C84.262177,97.413071 83.876144,97.311737 83.234055,97.049789 
z"/>
<path fill="#C8DEF9" opacity="1.000000" stroke="none" 
	d="
M107.891769,86.233887 
	C106.080040,88.212334 103.902473,90.090675 101.387848,92.027458 
	C101.023735,91.905693 100.996681,91.725502 100.954651,91.272331 
	C103.135094,89.377502 105.330513,87.755646 107.891769,86.233887 
z"/>
<path fill="#D8E9FD" opacity="1.000000" stroke="none" 
	d="
M41.516342,140.201309 
	C44.994499,128.903748 44.400856,117.270927 43.210751,105.559151 
	C42.974304,103.232285 43.826260,100.794823 44.500870,98.213776 
	C44.880913,110.323997 45.059174,122.630844 44.852566,134.931244 
	C44.823338,136.671204 42.918945,138.379669 41.516342,140.201309 
z"/>
<path fill="#C3DBF8" opacity="1.000000" stroke="none" 
	d="
M199.182281,142.162827 
	C199.711105,142.387192 200.835297,143.001938 200.896072,143.708221 
	C201.058441,145.594681 200.764038,147.520462 200.371124,149.704712 
	C199.824982,147.517517 199.558899,145.056244 199.182281,142.162827 
z"/>
<path fill="#D0E4F9" opacity="1.000000" stroke="none" 
	d="
M147.001373,130.550400 
	C145.100800,129.453613 143.077271,128.049683 141.045044,126.287682 
	C142.983704,127.367493 144.931061,128.805374 147.001373,130.550400 
z"/>
<path fill="#CDE3FC" opacity="1.000000" stroke="none" 
	d="
M57.450645,96.977509 
	C60.791939,96.657593 64.579803,96.460106 68.677460,96.522507 
	C65.290573,96.888237 61.593895,96.994087 57.450645,96.977509 
z"/>
<path fill="#D0E4F9" opacity="1.000000" stroke="none" 
	d="
M155.879425,137.693527 
	C154.342514,136.898895 152.693314,135.794769 151.025528,134.333969 
	C152.593674,135.112869 154.180405,136.248459 155.879425,137.693527 
z"/>
<path fill="#D0E4F9" opacity="1.000000" stroke="none" 
	d="
M160.858459,141.708405 
	C159.675308,141.215164 158.369690,140.421494 157.056396,139.265396 
	C158.277802,139.737976 159.506897,140.572983 160.858459,141.708405 
z"/>
<path fill="#D0E4F9" opacity="1.000000" stroke="none" 
	d="
M170.322601,149.440765 
	C169.325684,149.049438 168.196701,148.355362 167.054596,147.288879 
	C168.091156,147.656998 169.140854,148.397507 170.322601,149.440765 
z"/>
<path fill="#D0E4F9" opacity="1.000000" stroke="none" 
	d="
M165.387985,145.384766 
	C164.386459,144.989471 163.239594,144.296814 162.088379,143.223557 
	C163.136902,143.591110 164.189758,144.339264 165.387985,145.384766 
z"/>
<path fill="#FDFEFD" opacity="1.000000" stroke="none" 
	d="
M37.672310,140.044357 
	C38.316391,140.438171 38.633240,140.876328 38.972454,141.598450 
	C38.994820,141.882385 38.838680,142.235321 38.662884,142.313110 
	C37.945347,142.294678 37.403606,142.198471 36.449760,142.100113 
	C36.473461,141.428207 36.909271,140.758469 37.672310,140.044357 
z"/>
<path fill="#D0E4F9" opacity="1.000000" stroke="none" 
	d="
M149.763245,132.749939 
	C148.944778,132.546173 148.032089,132.050278 147.126312,131.206726 
	C147.978500,131.391983 148.823761,131.924896 149.763245,132.749939 
z"/>
<path fill="#C3DBF8" opacity="1.000000" stroke="none" 
	d="
M174.179688,152.395721 
	C173.947144,152.542862 173.604675,152.448166 173.182037,152.080322 
	C173.424484,151.922775 173.747116,152.038330 174.179688,152.395721 
z"/>
<path fill="#CDE3FC" opacity="1.000000" stroke="none" 
	d="
M46.261673,97.005692 
	C46.279278,96.800346 46.551033,96.669495 46.912987,96.705643 
	C46.840733,96.941826 46.678280,97.011002 46.261673,97.005692 
z"/>
<path fill="#CDE3FC" opacity="1.000000" stroke="none" 
	d="
M50.243977,96.960739 
	C50.271358,96.754837 50.553745,96.644402 50.922703,96.700027 
	C50.839176,96.929443 50.669079,96.992821 50.243977,96.960739 
z"/>
<path fill="#DAFADA" opacity="1.000000" stroke="none" 
	d="
M59.984474,84.575958 
	C59.269375,84.558632 58.690769,84.087250 58.076805,83.309311 
	C58.043686,75.729904 58.132732,68.455475 57.999504,61.185116 
	C57.954906,58.751122 57.343086,56.327526 56.987328,53.480194 
	C60.452606,53.237072 60.192871,55.806328 60.191860,58.141064 
	C60.188126,66.801353 60.147644,75.461632 59.984474,84.575958 
z"/>
<path fill="#DAFADA" opacity="1.000000" stroke="none" 
	d="
M55.468773,52.208275 
	C53.642345,52.066875 51.392441,52.065163 49.619785,51.144527 
	C44.008503,48.230282 38.575634,44.972500 33.017010,41.512596 
	C40.394737,44.760880 47.829224,48.344143 55.468773,52.208275 
z"/>
<path fill="#DAFADA" opacity="1.000000" stroke="none" 
	d="
M59.992279,89.689690 
	C59.675800,89.364059 59.485874,88.704292 59.579422,88.009628 
	C59.948212,88.435005 60.033524,88.895279 59.992279,89.689690 
z"/>
<path fill="#DAFADA" opacity="1.000000" stroke="none" 
	d="
M61.768867,92.842186 
	C61.702660,93.055649 61.410809,93.147583 61.079826,93.030609 
	C61.208206,92.788010 61.375717,92.754333 61.768867,92.842186 
z"/>
<path fill="#38CA3F" opacity="1.000000" stroke="none" 
	d="
M122.002533,124.999756 
	C122.112854,126.491234 122.284950,127.981667 122.317268,129.475128 
	C122.456100,135.890915 120.079819,137.979645 114.007698,135.689011 
	C112.567650,135.145767 112.044655,131.153030 111.883110,128.695541 
	C111.809219,127.571419 113.435867,125.633911 114.643379,125.285454 
	C116.642685,124.708534 118.926811,125.118645 121.545319,125.054611 
	C121.999718,124.996323 122.000000,125.000107 122.002533,124.999756 
z"/>
</svg>